<?xml version="1.0" encoding="UTF-8"?>
<svg id="Ebene_1" data-name="Ebene 1" xmlns="http://www.w3.org/2000/svg" viewBox="0 0 297.64 141.73">
  <defs>
    <style>
      .cls-1 {
        fill: #b2b2b2;
      }

      .cls-1, .cls-2, .cls-3, .cls-4 {
        stroke-width: 0px;
      }

      .cls-2 {
        fill: #e30613;
      }

      .cls-3 {
        fill: #fff;
      }

      .cls-4 {
        fill: #060e0f;
      }
    </style>
  </defs>
  <path class="cls-4" d="M90.95,51.1c.52.94,2.94,5.25,7.77,5.25,2.2,0,6.09-.95,8.61-5.67,1.26-2.41,1.89-5.04,1.89-10.71,0-5.04-.42-9.98-4.31-13.34-.74-.63-2.62-2.1-5.57-2.1s-4.62,1.26-5.46,2c-5.36,4.3-4.83,13.34-4.83,14.49.1,3.46.42,7.14,1.89,10.08"/>
  <path class="cls-4" d="M90.14,0l.08,21.59c5.04-4.73,8.72-8.09,15.96-8.09,4.62,0,8.08,1.57,9.56,2.42,5.04,2.73,12.49,9.66,12.49,23.94,0,2.62-.21,10.92-4.62,17.85-3.88,5.88-10.71,9.77-18.06,9.77-1.05,0-2.94-.11-5.46-.84-4.72-1.37-7.14-3.99-10.5-7.77l-.42,7.35-18.58-.11c.42-8.4.73-17.01.73-25.62,0-6.09-.1-12.18-.1-18.27-.08-7.45-.04-14.84-.02-22.22H0v141.73h141.73V0h-51.6"/>
  <path class="cls-3" d="M71.21,22.22c0,6.09.1,12.18.1,18.27,0,8.61-.32,17.22-.73,25.62l18.58.11.42-7.35c3.36,3.78,5.78,6.41,10.5,7.77,2.52.73,4.41.84,5.46.84,7.35,0,14.18-3.88,18.06-9.77,4.41-6.93,4.62-15.22,4.62-17.85,0-14.28-7.45-21.21-12.49-23.94-1.47-.84-4.94-2.42-9.56-2.42-7.25,0-10.92,3.36-15.96,8.09l-.08-21.59h-18.94c-.03,7.38-.06,14.77.02,22.22h0ZM93.89,26.53c.84-.74,2.62-2,5.46-2s4.83,1.47,5.57,2.1c3.88,3.36,4.31,8.29,4.31,13.34,0,5.67-.63,8.29-1.89,10.71-2.52,4.72-6.41,5.67-8.61,5.67-4.83,0-7.25-4.31-7.77-5.25-1.47-2.94-1.79-6.62-1.89-10.08,0-1.16-.53-10.19,4.83-14.49"/>
  <path class="cls-2" d="M139.56,111.56c-1.01-2.9-2.02-5.81-2.9-8.84-1.89-5.56-3.41-11.24-5.05-16.92h-25.51c-2.65,7.7-5.43,15.53-7.83,23.36-2.02,6.44-3.79,13.01-5.56,19.57-4.04-19.32-5.56-24.12-11.62-42.93h-24.62l19.79,55.93h28.83l5.93-16.03c3.41-10.35,4.17-13.01,6.19-23.74.88,4.8,1.89,9.47,3.16,14.27,1.13,4.29,2.65,8.59,4.04,12.75,1.38,4.23,2.76,8.47,4.1,12.74h13.22v-23.34c-.67-2.44-1.32-4.38-2.17-6.82"/>
  <path class="cls-1" d="M33.28,60.32l-11.12-3.05c-5.38-1.47-8.43-2.32-8.43-6.48,0-3.79,3.67-6.11,8.55-6.11,2.81,0,8.31.49,8.8,7.33h16.49c-.49-12.34-10.75-18.21-23.46-18.21-11.14,0-19.85,3.55-24.11,9.75v19.17c3.51,4.8,9.39,6.5,12.75,7.49l11.24,3.05c7.09,1.96,8.55,4.15,8.55,6.96,0,3.67-3.05,7.33-9.53,7.33-7.58,0-10.02-4.52-10.26-8.43H0v11.77c.1.11.19.22.29.33,5.62,5.87,13.2,7.58,21.14,7.58,19.18,0,28.35-10.63,28.35-21.26,0-8.43-5.25-14.17-16.49-17.23"/>
  <rect class="cls-4" x="155.91" width="141.73" height="141.73"/>
  <g>
    <path class="cls-3" d="M163.27,7.67h4.12v7.99c.11-.17.27-.37.48-.61.21-.24.47-.47.79-.69.32-.22.71-.41,1.17-.57.46-.16,1.02-.24,1.67-.24.52,0,1,.06,1.43.18.43.12.82.27,1.17.45.35.18.65.38.9.6.25.22.46.45.63.67.26.35.48.85.66,1.48.18.64.27,1.42.27,2.35v8.6h-4.14v-8.48c0-.21-.01-.48-.04-.83-.03-.35-.11-.69-.25-1.02-.14-.34-.37-.63-.69-.87-.32-.24-.77-.36-1.34-.36-.3,0-.6.05-.91.14-.31.09-.59.25-.85.48-.26.22-.48.52-.64.88-.17.36-.25.83-.25,1.39l.03,8.67h-4.17V7.67Z"/>
    <path class="cls-3" d="M188.75,27.88c-.08-.43-.12-.81-.13-1.13,0-.33-.01-.59-.01-.8-.39.56-.8.99-1.22,1.3-.42.31-.82.53-1.19.67-.37.14-.72.22-1.05.25-.33.03-.58.04-.77.04-1.03,0-1.8-.12-2.32-.36-.52-.24-.92-.49-1.2-.76-.43-.43-.74-.91-.94-1.46-.2-.54-.29-1.09-.29-1.65,0-.28.03-.61.1-.99.07-.38.21-.77.42-1.18.21-.4.52-.8.91-1.19.39-.39.91-.74,1.57-1.04.43-.19.9-.34,1.41-.45.51-.11,1.02-.19,1.53-.24.5-.05.99-.07,1.46-.08.47,0,.87-.01,1.2-.01,0-.47,0-.83-.03-1.09-.02-.26-.07-.52-.17-.78-.09-.26-.22-.47-.39-.62-.17-.15-.34-.27-.52-.35-.18-.08-.35-.14-.53-.17-.18-.03-.31-.04-.41-.04-.3,0-.59.07-.87.2-.28.13-.51.33-.7.59-.15.24-.24.47-.27.69-.03.21-.04.41-.04.57h-4.06c0-.19.01-.41.04-.69.03-.27.1-.56.21-.87.11-.31.27-.62.48-.92.21-.31.49-.59.87-.85.65-.47,1.36-.77,2.13-.92.76-.15,1.48-.22,2.16-.22.3,0,.66.02,1.09.06.43.04.88.12,1.34.25.47.13.93.31,1.39.55.46.23.86.56,1.22.97.24.28.43.59.56.94.13.35.23.68.29.99.07.32.1.61.11.88,0,.27.01.49.01.66l.03,5.68c0,.6.02,1.19.07,1.79.05.6.13,1.19.27,1.79h-3.75ZM188.21,21.22c-.67-.06-1.28-.05-1.83.03-.55.08-1.03.21-1.44.41s-.73.45-.95.77c-.22.32-.34.68-.34,1.09,0,.24.04.48.12.71s.21.45.38.64c.17.2.38.35.63.48.25.12.55.18.88.18.37,0,.71-.08,1.01-.24.3-.16.55-.35.76-.57.37-.45.6-.95.67-1.51.07-.56.11-1.22.11-1.99Z"/>
    <path class="cls-3" d="M199.89,13.74v8.43c0,.32,0,.65.03,1.01.02.35.1.69.24,1.01.14.32.36.58.66.78.3.21.73.31,1.29.31.67,0,1.19-.12,1.54-.35.35-.23.62-.55.78-.95.17-.4.27-.87.29-1.4.03-.53.04-1.1.04-1.69v-7.14h4.26v9.32c.02.77.03,1.38.04,1.83,0,.46.02.81.03,1.06,0,.25.01.44.01.57v.31c.02.21.03.38.04.52,0,.14.03.31.07.52h-4.03l-.14-1.88c-.11.15-.27.35-.46.6-.2.25-.46.5-.78.74-.33.24-.73.45-1.2.63-.48.18-1.05.27-1.72.27-.95,0-1.8-.19-2.55-.56-.75-.37-1.32-.82-1.71-1.34-.22-.28-.4-.61-.53-.98-.13-.37-.22-.74-.28-1.09-.06-.35-.09-.69-.1-1.01,0-.32-.01-.56-.01-.73v-8.79h4.2Z"/>
    <path class="cls-3" d="M215.82,23.79c.02.22.07.45.15.69s.21.44.39.62c.18.18.42.33.71.45.3.12.66.18,1.09.18.75,0,1.3-.17,1.65-.52.35-.35.53-.73.53-1.16,0-.32-.13-.61-.38-.87-.25-.26-.78-.5-1.58-.73l-2.58-.7c-.28-.07-.63-.19-1.04-.34-.41-.15-.81-.37-1.19-.66-.38-.29-.71-.67-.97-1.13-.26-.47-.39-1.06-.39-1.79s.15-1.31.45-1.85c.3-.54.72-1,1.27-1.39.55-.38,1.21-.68,1.96-.88.76-.2,1.59-.31,2.51-.31.73,0,1.41.08,2.06.25.64.17,1.2.42,1.68.77.48.35.86.78,1.15,1.3.29.52.45,1.14.49,1.85h-3.78c-.04-.39-.13-.7-.28-.92-.15-.22-.33-.39-.53-.5-.21-.11-.42-.18-.63-.21-.21-.03-.41-.04-.57-.04-.56,0-1.03.13-1.4.38-.37.25-.56.59-.56,1.02,0,.49.17.81.5.98s.81.34,1.43.5l2.55.7c1.29.35,2.24.86,2.86,1.51.62.65.92,1.47.92,2.44,0,.62-.13,1.21-.39,1.79-.26.58-.66,1.1-1.21,1.55-.54.46-1.22.83-2.03,1.11s-1.77.42-2.87.42c-.92,0-1.79-.12-2.62-.36-.83-.24-1.57-.7-2.23-1.37-.47-.49-.75-.98-.85-1.5-.1-.51-.16-.94-.18-1.27h3.89Z"/>
    <path class="cls-3" d="M172.51,38.47h4.14v17.92c0,.43,0,.85.03,1.27.02.42.05.76.08,1.02h-4.17l-.11-2.04c-.15.26-.32.52-.5.78-.19.26-.5.53-.92.81-.52.34-1.03.54-1.53.62-.49.07-.9.11-1.22.11-1.9,0-3.38-.62-4.44-1.85-1.06-1.23-1.58-2.96-1.58-5.18,0-1.18.15-2.23.46-3.16.31-.93.73-1.73,1.27-2.38.54-.65,1.2-1.16,1.96-1.51.76-.35,1.61-.53,2.55-.53.63,0,1.18.08,1.64.24.46.16.84.34,1.16.55.32.21.57.42.76.63.19.21.33.39.42.52v-7.81ZM166.49,51.82c0,.6.05,1.16.15,1.69.1.53.27,1,.49,1.41.22.41.52.74.88.98.36.24.81.36,1.33.36.6,0,1.13-.16,1.6-.48s.81-.69,1.04-1.12c.32-.6.51-1.21.57-1.85.07-.63.1-1.13.1-1.48,0-1.4-.28-2.46-.83-3.19-.55-.73-1.3-1.09-2.25-1.09-.69,0-1.24.18-1.65.55-.41.36-.72.8-.92,1.3-.21.5-.34,1.03-.41,1.57-.07.54-.1.99-.1,1.34Z"/>
    <path class="cls-3" d="M183.62,52.66c0,.22.01.55.04.98.03.43.13.85.32,1.26.19.41.47.77.85,1.08.38.31.94.46,1.67.46.52,0,1.01-.13,1.47-.39.46-.26.79-.78.99-1.57h3.78c-.02.17-.04.37-.07.6-.03.23-.09.48-.18.74-.09.26-.23.54-.41.84-.18.3-.41.6-.69.9-.52.54-1.22.95-2.09,1.23-.87.28-1.83.42-2.87.42-.3,0-.66-.02-1.08-.06-.42-.04-.86-.12-1.32-.25-.46-.13-.91-.31-1.36-.53s-.87-.53-1.24-.92c-.66-.67-1.13-1.47-1.41-2.41-.28-.93-.42-1.97-.42-3.11,0-.58.04-1.18.13-1.79.08-.62.24-1.22.45-1.81.22-.59.52-1.15.9-1.68.39-.53.88-1,1.48-1.41.54-.37,1.15-.66,1.81-.87.66-.21,1.39-.31,2.17-.31.5,0,1.03.06,1.57.17.54.11,1.06.3,1.57.56.5.26.98.61,1.43,1.05.45.44.83.98,1.15,1.64.24.49.42.97.55,1.46.12.49.21.96.25,1.41.05.46.07.88.07,1.27s0,.74-.03,1.04h-9.49ZM188.89,50.06c0-.17-.01-.42-.04-.77-.03-.35-.12-.7-.28-1.05-.16-.35-.41-.67-.74-.94-.34-.27-.8-.41-1.4-.41-.45,0-.84.09-1.16.27-.33.18-.6.41-.81.7-.21.29-.38.63-.49,1.01-.11.38-.18.78-.2,1.19h5.12Z"/>
    <path class="cls-3" d="M198.71,54.59c.02.22.07.45.15.69s.21.44.39.62c.18.18.41.33.71.45.3.12.66.18,1.09.18.75,0,1.3-.17,1.65-.52s.53-.73.53-1.16c0-.32-.13-.61-.38-.87-.25-.26-.78-.5-1.58-.73l-2.58-.7c-.28-.07-.63-.19-1.04-.34-.41-.15-.81-.37-1.19-.66-.38-.29-.71-.67-.97-1.13-.26-.47-.39-1.06-.39-1.79s.15-1.31.45-1.85c.3-.54.72-1,1.27-1.39.55-.38,1.2-.68,1.96-.88.76-.21,1.59-.31,2.51-.31.73,0,1.41.08,2.06.25.64.17,1.2.42,1.68.77.48.35.86.78,1.15,1.3.29.52.45,1.14.49,1.85h-3.78c-.04-.39-.13-.7-.28-.92s-.33-.39-.53-.5c-.21-.11-.42-.18-.63-.21-.21-.03-.41-.04-.57-.04-.56,0-1.03.13-1.4.38-.37.25-.56.59-.56,1.02,0,.49.17.81.5.98s.81.34,1.43.5l2.55.7c1.29.35,2.24.86,2.86,1.51.62.65.92,1.47.92,2.44,0,.62-.13,1.21-.39,1.79-.26.58-.66,1.1-1.2,1.55-.54.46-1.22.83-2.03,1.11-.81.28-1.77.42-2.87.42-.91,0-1.79-.12-2.62-.36-.83-.24-1.57-.7-2.23-1.37-.47-.49-.75-.98-.85-1.5-.1-.51-.16-.94-.18-1.27h3.89Z"/>
    <path class="cls-3" d="M163.15,69.24h4.14v20.24h-4.14v-20.24Z"/>
    <path class="cls-3" d="M174.3,83.46c0,.22.01.55.04.98.03.43.14.85.32,1.26.19.41.47.77.85,1.08s.94.46,1.67.46c.52,0,1.01-.13,1.47-.39.46-.26.79-.78.99-1.57h3.78c-.02.17-.04.37-.07.6-.03.23-.09.48-.18.74-.09.26-.23.54-.41.84-.18.3-.41.6-.69.9-.52.54-1.22.95-2.09,1.23-.87.28-1.82.42-2.87.42-.3,0-.66-.02-1.08-.06-.42-.04-.86-.12-1.32-.25-.46-.13-.91-.31-1.36-.53-.45-.22-.87-.53-1.24-.92-.66-.67-1.13-1.47-1.41-2.41-.28-.93-.42-1.97-.42-3.11,0-.58.04-1.18.13-1.79s.24-1.22.45-1.81.52-1.15.9-1.68c.39-.53.88-1,1.48-1.41.54-.37,1.15-.66,1.81-.87.66-.2,1.39-.31,2.17-.31.5,0,1.03.06,1.57.17.54.11,1.06.3,1.57.56.5.26.98.61,1.43,1.05.45.44.83.98,1.15,1.64.24.49.42.97.55,1.46.12.49.21.96.25,1.41.05.46.07.88.07,1.27s0,.74-.03,1.04h-9.49ZM179.56,80.86c0-.17-.01-.42-.04-.77-.03-.34-.12-.7-.28-1.05-.16-.36-.41-.67-.74-.94-.34-.27-.8-.41-1.4-.41-.45,0-.83.09-1.16.27-.33.18-.6.41-.81.7-.21.29-.38.63-.49,1.01-.11.38-.18.78-.2,1.19h5.12Z"/>
    <path class="cls-3" d="M186.51,78.81c0-.17,0-.41-.01-.71,0-.31-.02-.64-.04-.99-.02-.35-.04-.7-.07-1.02-.03-.33-.05-.59-.07-.8h3.89l.08,2.71c.13-.3.3-.62.5-.95.21-.34.49-.64.84-.92.35-.28.81-.5,1.37-.67.56-.17,1.26-.23,2.1-.2v3.72c-1.04-.09-1.87-.05-2.46.14-.6.19-1.05.46-1.34.81-.3.35-.48.76-.55,1.22-.07.46-.1.91-.1,1.36v6.97h-4.14v-10.67Z"/>
    <path class="cls-3" d="M196.33,77.86v-.28c0-.19,0-.41-.01-.66,0-.25-.02-.53-.03-.83,0-.3-.02-.57-.04-.81h3.98l.11,2.13c.09-.17.24-.39.45-.66.21-.27.49-.54.84-.81.35-.27.8-.5,1.34-.7.54-.2,1.19-.29,1.96-.29.69,0,1.29.09,1.79.28.5.19.93.42,1.27.69.35.27.62.56.81.87.2.31.34.58.43.83.07.22.14.44.2.66.06.21.1.48.13.78.03.31.05.69.06,1.13,0,.45.01,1,.01,1.65v7.64h-4.23v-8.79c0-.3,0-.57-.03-.83-.02-.25-.08-.49-.2-.71-.15-.32-.39-.6-.71-.84-.33-.24-.76-.36-1.3-.36-.45,0-.86.1-1.25.29-.38.2-.69.46-.91.8-.13.19-.25.46-.35.81-.1.35-.15.8-.15,1.34v8.29h-4.17v-11.62Z"/>
    <path class="cls-3" d="M216.75,83.46c0,.22.01.55.04.98.03.43.14.85.32,1.26.19.41.47.77.85,1.08.38.31.94.46,1.67.46.52,0,1.01-.13,1.47-.39.46-.26.79-.78.99-1.57h3.78c-.02.17-.04.37-.07.6-.03.23-.09.48-.18.74-.09.26-.23.54-.41.84-.18.3-.41.6-.69.9-.52.54-1.22.95-2.09,1.23-.87.28-1.82.42-2.87.42-.3,0-.66-.02-1.08-.06-.42-.04-.86-.12-1.32-.25-.46-.13-.91-.31-1.36-.53-.45-.22-.87-.53-1.24-.92-.66-.67-1.13-1.47-1.41-2.41-.28-.93-.42-1.97-.42-3.11,0-.58.04-1.18.13-1.79.08-.62.23-1.22.45-1.81.22-.59.52-1.15.9-1.68.38-.53.88-1,1.48-1.41.54-.37,1.15-.66,1.81-.87.66-.2,1.39-.31,2.17-.31.5,0,1.03.06,1.57.17s1.06.3,1.57.56c.5.26.98.61,1.43,1.05.45.44.83.98,1.15,1.64.24.49.42.97.54,1.46.12.49.2.96.25,1.41.05.46.07.88.07,1.27s0,.74-.03,1.04h-9.49ZM222.01,80.86c0-.17-.01-.42-.04-.77-.03-.34-.12-.7-.28-1.05-.16-.36-.41-.67-.74-.94-.34-.27-.8-.41-1.4-.41-.45,0-.83.09-1.16.27-.33.18-.6.41-.81.7-.21.29-.38.63-.49,1.01-.11.38-.18.78-.2,1.19h5.12Z"/>
    <path class="cls-3" d="M229.01,77.86v-.28c0-.19,0-.41-.01-.66,0-.25-.02-.53-.03-.83,0-.3-.02-.57-.04-.81h3.98l.11,2.13c.09-.17.24-.39.45-.66.21-.27.49-.54.84-.81s.8-.5,1.34-.7c.54-.2,1.19-.29,1.96-.29.69,0,1.29.09,1.79.28.5.19.93.42,1.27.69.35.27.62.56.81.87.2.31.34.58.43.83.07.22.14.44.2.66.06.21.1.48.13.78.03.31.05.69.06,1.13,0,.45.01,1,.01,1.65v7.64h-4.23v-8.79c0-.3,0-.57-.03-.83-.02-.25-.08-.49-.2-.71-.15-.32-.39-.6-.71-.84-.33-.24-.76-.36-1.3-.36-.45,0-.86.1-1.25.29-.38.2-.69.46-.91.8-.13.19-.25.46-.35.81-.1.35-.15.8-.15,1.34v8.29h-4.17v-11.62Z"/>
    <path class="cls-3" d="M248.95,85.39c.02.22.07.45.15.69.08.23.21.44.39.62.18.18.41.33.71.45s.66.18,1.09.18c.75,0,1.3-.17,1.65-.52.36-.35.53-.73.53-1.16,0-.32-.13-.61-.38-.87-.25-.26-.78-.5-1.58-.73l-2.58-.7c-.28-.08-.62-.19-1.04-.34-.41-.15-.81-.37-1.19-.66-.38-.29-.71-.67-.97-1.13-.26-.47-.39-1.06-.39-1.79s.15-1.31.45-1.85c.3-.54.72-1,1.27-1.39.55-.38,1.2-.68,1.96-.88.76-.21,1.59-.31,2.51-.31.73,0,1.41.08,2.06.25.64.17,1.2.43,1.68.77.48.35.86.78,1.15,1.3.29.52.45,1.14.49,1.85h-3.78c-.04-.39-.13-.7-.28-.92-.15-.22-.33-.39-.53-.5-.21-.11-.42-.18-.63-.21-.21-.03-.41-.04-.57-.04-.56,0-1.03.13-1.4.38-.37.25-.56.59-.56,1.02,0,.49.17.81.5.98.34.17.81.34,1.43.5l2.55.7c1.29.36,2.24.86,2.86,1.51.62.65.92,1.47.92,2.44,0,.62-.13,1.21-.39,1.79-.26.58-.66,1.1-1.2,1.55-.54.46-1.22.83-2.03,1.11s-1.77.42-2.87.42c-.91,0-1.79-.12-2.62-.36-.83-.24-1.57-.7-2.23-1.37-.47-.48-.75-.98-.85-1.5-.1-.51-.16-.94-.18-1.27h3.89Z"/>
  </g>
</svg>